<?xml version="1.0" encoding="UTF-8"?>
<svg id="Capa_2" xmlns="http://www.w3.org/2000/svg" xmlns:xlink="http://www.w3.org/1999/xlink" viewBox="0 0 396.77 206.56">
  <defs>
    <style>
      .cls-1 {
        fill: url(#linear-gradient-2);
      }

      .cls-2 {
        fill: url(#linear-gradient-3);
      }

      .cls-3 {
        fill: url(#linear-gradient);
      }

      .cls-4 {
        fill: #2d62a9;
      }
    </style>
    <linearGradient id="linear-gradient" x1="116.16" y1="74.53" x2="264.93" y2="74.53" gradientUnits="userSpaceOnUse">
      <stop offset=".07" stop-color="#6ec3ec"/>
      <stop offset=".96" stop-color="#395ba3"/>
    </linearGradient>
    <linearGradient id="linear-gradient-2" x1="159.73" y1="74.53" x2="249.93" y2="74.53" xlink:href="#linear-gradient"/>
    <linearGradient id="linear-gradient-3" x1="186.86" y1="67.65" x2="222.79" y2="67.65" xlink:href="#linear-gradient"/>
  </defs>
  <g id="trazado_logo">
    <g>
      <path class="cls-3" d="M205.43,134.22c-33.05,0-59.85-26.79-59.85-59.85s26.79-59.85,59.85-59.85c30.73,0,56.04,23.17,59.44,52.99C261.34,29.64,229.48,0,190.68,0c-41.16,0-74.53,33.37-74.53,74.53s33.37,74.53,74.53,74.53,71.09-30.06,74.25-68.31c-3.19,30.05-28.61,53.47-59.5,53.47Z"/>
      <path class="cls-1" d="M204.82,29.43c-.05,0-.11,0-.16,0,19.66.09,35.57,16.05,35.57,35.73s-16,35.73-35.73,35.73-35.73-16-35.73-35.73c0-18.5,14.05-33.71,32.07-35.55-23.04,2.03-41.1,21.35-41.1,44.91,0,24.91,20.19,45.1,45.1,45.1s45.1-20.19,45.1-45.1-20.19-45.1-45.1-45.1Z"/>
      <path class="cls-2" d="M222.79,67.65c0,9.92-8.04,17.96-17.96,17.96s-17.96-8.04-17.96-17.96,8.04-17.96,17.96-17.96,17.96,8.04,17.96,17.96Z"/>
    </g>
    <g>
      <path class="cls-4" d="M2.43,205.06c-.35.22-.71.3-1.06.23-.35-.07-.64-.22-.86-.46-.22-.24-.37-.56-.46-.96s-.07-.79.07-1.19c.84-2.38,1.73-4.75,2.67-7.13.95-2.38,1.86-4.75,2.74-7.13h-.86c-.35,0-.73,0-1.12-.03-.4-.02-.77-.05-1.12-.1-.35-.04-.62-.13-.79-.26-.26-.17-.44-.42-.53-.73-.09-.31-.09-.62,0-.92.09-.31.25-.56.49-.76.24-.2.54-.3.89-.3h2.08c.46,0,.9,0,1.32-.03.42-.02.69-.03.82-.03.4-1.06.86-2.42,1.39-4.09.53-1.67,1.12-3.46,1.78-5.38.66-1.91,1.36-3.86,2.11-5.84.75-1.98,1.55-3.83,2.41-5.54.86-1.72,1.76-3.21,2.71-4.49.95-1.28,1.92-2.18,2.94-2.71.4-.22.81-.36,1.25-.43.44-.07.88-.12,1.32-.16.75-.09,1.46-.14,2.14-.17.68-.02,1.4.01,2.15.1.48.09.95.28,1.39.56.44.29.84.61,1.19.96.75.75,1.37,1.6,1.88,2.54.5.95.96,1.93,1.35,2.94.75,1.67,1.4,3.4,1.95,5.18.55,1.78,1.04,3.58,1.49,5.38.48,1.85.91,3.69,1.29,5.51.37,1.83.67,3.69.89,5.58h1.45c.75,0,1.23.02,1.45.07.44.09.77.31.99.66.22.35.32.71.3,1.06-.02.35-.15.68-.4.99-.24.31-.58.48-1.02.53h-2.38c.18,1.32.32,2.63.43,3.93.11,1.3.21,2.58.3,3.86.04.4.07.92.07,1.58s-.01,1.35-.03,2.08c-.02.73-.1,1.41-.23,2.05-.13.64-.31,1.11-.53,1.42-.35.44-.8.74-1.35.89-.55.16-1.07.28-1.55.36-2.11.44-4.34.59-6.67.46-.62-.05-1.22-.17-1.82-.36-.59-.2-1.13-.52-1.62-.96-.53-.44-.94-.99-1.22-1.65-.29-.66-.52-1.32-.69-1.98-.22-.88-.36-1.76-.43-2.64-.07-.88-.14-1.76-.23-2.64,0-.18-.04-.57-.13-1.19-.09-.62-.18-1.28-.26-1.98-.09-.7-.18-1.35-.26-1.95-.09-.59-.16-.98-.2-1.15-2.24-.04-4.48-.07-6.7-.07s-4.46-.02-6.7-.07c-.13.31-.33.84-.59,1.58-.26.75-.58,1.61-.96,2.57-.37.97-.76,1.99-1.15,3.07-.4,1.08-.78,2.11-1.16,3.1-.37.99-.7,1.86-.99,2.61-.29.75-.47,1.28-.56,1.58-.09.35-.21.73-.36,1.12-.16.4-.39.7-.69.92ZM12.86,177.6c-.44,1.28-.88,2.54-1.32,3.8-.44,1.25-.9,2.52-1.39,3.79,1.98-.04,3.93-.07,5.84-.07s3.86-.02,5.84-.07c-.49-3.56-.97-7.1-1.45-10.59-.48-3.5-1.19-6.98-2.11-10.46-1.19,2.16-2.2,4.38-3.04,6.67-.84,2.29-1.63,4.6-2.37,6.93Z"/>
      <path class="cls-4" d="M56.88,205.39c-.4.09-1.01.14-1.85.16-.84.02-1.71.03-2.64.03s-1.79-.02-2.61-.07c-.81-.04-1.42-.11-1.82-.2-1.06-.35-1.67-1.01-1.85-1.98-.53-2.86-.9-5.71-1.12-8.55-.22-2.84-.35-5.71-.4-8.61,0-2.38.05-4.72.17-7.03.11-2.31.34-4.65.69-7.03.22-1.63.54-3.23.96-4.82.42-1.58.98-3.12,1.68-4.62.44-.92.93-1.84,1.49-2.74.55-.9,1.24-1.66,2.08-2.28.44-.35.9-.63,1.39-.82.48-.2.99-.36,1.52-.5,1.28-.35,2.62-.46,4.03-.33,1.41.13,2.75.44,4.03.92.66.26,1.3.59,1.91.99.62.4,1.17.88,1.65,1.45.57.66,1.01,1.41,1.32,2.24.31.84.51,1.69.59,2.57.22,1.67.13,3.32-.26,4.95-.4,1.63-.92,3.21-1.58,4.75-1.01,2.38-2.22,4.6-3.63,6.67-1.41,2.07-2.84,4.16-4.29,6.27-.04.09-.12.18-.23.26-.11.09-.17.18-.17.26,0,1.67.04,3.32.13,4.95.09,1.63.26,3.28.53,4.95.13.88.25,1.74.36,2.57.11.84.27,1.7.5,2.57.04.26.07.55.07.86s-.07.57-.2.79c-.22.4-.56.69-1.02.89-.46.2-.94.34-1.42.43ZM59.45,166.05c-.53,2.42-.85,4.86-.96,7.33-.11,2.46-.16,4.95-.16,7.46,1.41-2.11,2.71-4.28,3.89-6.5,1.19-2.22,2-4.56,2.44-7.03.09-.7.13-1.42.13-2.15s-.11-1.44-.33-2.15c-.35-.92-.92-1.65-1.72-2.18-.18-.09-.33-.09-.46,0-.4.09-.75.33-1.06.73-.31.4-.58.86-.83,1.39-.24.53-.44,1.08-.59,1.65-.15.57-.28,1.06-.36,1.45Z"/>
      <path class="cls-4" d="M82.35,205.65c-1.19.4-2.41.62-3.66.66-1.25.04-2.52-.02-3.79-.2-.92-.09-1.78-.29-2.57-.59-.66-.35-1.1-.79-1.32-1.32-.22-.44-.35-.91-.4-1.42-.04-.51-.07-1-.07-1.48.09-1.41.17-2.83.26-4.26.09-1.43.15-2.85.2-4.26.09-2.24.14-4.44.17-6.6.02-2.15.05-4.36.1-6.6v-4.32c0-1.43-.04-2.87-.13-4.32-.57-.92-.42-1.71.46-2.38.48-.4,1.18-.7,2.08-.92.9-.22,1.87-.37,2.9-.46,1.03-.09,2.02-.11,2.97-.07.95.04,1.73.13,2.34.26,1.1.22,2,.59,2.71,1.12.66.48,1.14,1.06,1.45,1.72.4.75.67,1.53.83,2.34.15.82.27,1.64.36,2.48.75-1.01,1.57-1.98,2.47-2.9.9-.92,1.9-1.69,3-2.31.88-.48,1.8-.9,2.77-1.25.97-.35,1.96-.55,2.97-.59,2.29,0,4.22.79,5.81,2.38.92.92,1.65,1.99,2.18,3.2.53,1.21.92,2.45,1.19,3.73.62-1.01,1.28-1.97,1.98-2.87.7-.9,1.5-1.73,2.38-2.48,1.1-1.01,2.32-1.86,3.66-2.54,1.34-.68,2.74-1.18,4.19-1.48.79-.18,1.62-.25,2.47-.23.86.02,1.68.19,2.48.49.66.26,1.29.62,1.88,1.06.59.44,1.09.97,1.49,1.58,1.28,1.72,2.15,3.65,2.64,5.81.48,2.16.79,4.29.92,6.4.17,2.46.3,4.91.36,7.33.07,2.42.05,4.88-.03,7.39-.04.7-.1,1.41-.16,2.11-.07.71-.21,1.39-.43,2.05-.4,1.58-1.41,2.66-3.04,3.23-.92.35-1.95.48-3.07.4-1.12-.09-2.08-.44-2.87-1.06-.66-.48-1.13-1.12-1.42-1.91-.29-.79-.47-1.58-.56-2.38-.18-1.71-.24-3.43-.2-5.15.04-1.72.1-3.43.16-5.15.07-1.72.11-3.43.13-5.15.02-1.72-.06-3.43-.23-5.15-.04-.4-.11-.87-.2-1.42-.09-.55-.21-1.08-.36-1.58-.15-.5-.35-.95-.59-1.32-.24-.37-.56-.63-.96-.76-.79-.22-1.57-.13-2.34.26-.77.4-1.51.94-2.21,1.62-.7.68-1.35,1.45-1.95,2.31-.59.86-1.09,1.64-1.49,2.34-.35.62-.68,1.2-.99,1.75-.31.55-.59,1.13-.86,1.75.09,1.67.12,3.34.1,5.02-.02,1.67-.1,3.34-.23,5.02-.09.84-.17,1.66-.23,2.47-.07.81-.23,1.64-.49,2.47-.09.35-.25.71-.5,1.06-.24.35-.54.64-.89.86-.4.22-.95.38-1.65.46-.7.09-1.44.12-2.21.1-.77-.02-1.52-.08-2.24-.17-.73-.09-1.31-.22-1.75-.4-.75-.31-1.28-.81-1.58-1.52-.22-.53-.34-1.1-.36-1.72-.02-.62-.03-1.23-.03-1.85.04-2.33.19-4.64.43-6.93.24-2.29.41-4.6.49-6.93v-1.98c0-.79-.05-1.58-.16-2.38-.11-.79-.29-1.53-.53-2.21-.24-.68-.58-1.18-1.02-1.49-.22-.17-.51-.26-.86-.26s-.64.07-.86.2c-.75.4-1.42.89-2.01,1.49-.59.59-1.13,1.24-1.62,1.95-.53.75-1.01,1.55-1.45,2.41-.44.86-.84,1.73-1.19,2.61,0,2.51-.02,4.99-.07,7.46-.04,2.46-.2,4.95-.46,7.46-.09.88-.22,1.75-.4,2.61-.18.86-.46,1.66-.86,2.41-.35.66-.84,1.24-1.45,1.75-.62.5-1.28.89-1.98,1.16Z"/>
      <path class="cls-4" d="M173.04,204.07c-.48.57-1.18.99-2.08,1.25-.9.26-1.87.44-2.9.53-1.03.09-2.06.09-3.07,0-1.01-.09-1.87-.22-2.57-.4-.97-.22-1.8-.7-2.51-1.45-.35-.35-.63-.78-.82-1.29-.2-.5-.39-1-.56-1.48-.48-1.28-.81-2.61-.99-3.99-.18-1.39-.31-2.78-.4-4.19-.66,2.16-1.56,4.25-2.71,6.27-.57,1.01-1.28,1.97-2.11,2.87-.84.9-1.78,1.6-2.84,2.08-1.67.75-3.46.99-5.35.73-1.89-.26-3.54-1.01-4.95-2.24-.84-.7-1.53-1.55-2.08-2.54-.55-.99-1-2.01-1.35-3.07-.53-1.94-.77-3.92-.72-5.94.04-2.02.15-4.03.33-6.01,0-.13.02-.38.07-.76.04-.37.1-.77.16-1.19.07-.42.12-.81.16-1.19.04-.37.07-.63.07-.76.09-1.28.12-2.53.1-3.76-.02-1.23.05-2.46.23-3.7.13-.97.42-1.78.86-2.44.22-.31.5-.56.83-.76.33-.2.67-.34,1.02-.43.44-.09.88-.13,1.32-.13s.9.02,1.39.07c.79.09,1.58.35,2.38.79.79.44,1.36,1.04,1.72,1.78.22.48.36.98.43,1.48.07.51.08,1.02.03,1.55-.04,1.01-.13,2.03-.26,3.04-.13,1.01-.29,2.02-.46,3.04-.22,1.5-.42,2.98-.59,4.46-.18,1.47-.31,2.98-.4,4.52-.09,1.14-.13,2.27-.13,3.37s.09,2.22.26,3.37c.09.49.21.98.36,1.49.15.51.41.94.76,1.29.22.31.56.57,1.02.79.46.22.87.26,1.22.13.57-.26,1.1-.62,1.58-1.06.48-.44.9-.9,1.25-1.39.57-.75,1.06-1.55,1.45-2.41.4-.86.77-1.73,1.12-2.61.84-2.24,1.46-4.51,1.88-6.8.42-2.29.8-4.62,1.16-7,.17-.97.34-1.94.5-2.9.15-.97.47-1.89.96-2.77.62-1.19,1.54-2.02,2.77-2.51.62-.22,1.24-.37,1.88-.46.64-.09,1.26-.13,1.88-.13.75-.04,1.47.01,2.18.17.7.15,1.36.43,1.98.83.84.53,1.47,1.25,1.91,2.18.48,1.1.79,2.25.92,3.47.13,1.21.24,2.41.33,3.6.18,1.85.34,3.69.5,5.51.15,1.83.41,3.66.76,5.51.22,1.41.47,2.79.76,4.16.29,1.36.45,2.75.49,4.16,0,.57-.09,1.16-.26,1.75-.18.59-.46,1.11-.86,1.55Z"/>
      <path class="cls-4" d="M197.39,206.05c-1.98.48-4,.63-6.07.43-2.07-.2-4.03-.74-5.87-1.62-1.28-.62-2.46-1.4-3.56-2.34-1.1-.95-2.02-2.01-2.77-3.2-.92-1.5-1.62-3.11-2.08-4.85-.46-1.74-.74-3.51-.83-5.31-.09-2.24.17-4.5.79-6.77.62-2.27,1.58-4.32,2.9-6.17,1.19-1.67,2.64-3.07,4.36-4.19,1.72-1.12,3.61-1.86,5.68-2.21,1.36-.22,2.74-.27,4.12-.16,1.39.11,2.72.45,3.99,1.02,1.54.62,2.86,1.54,3.96,2.77.79.88,1.41,1.9,1.85,3.07.44,1.17.7,2.35.79,3.56.09,1.21,0,2.42-.26,3.63-.26,1.21-.73,2.3-1.39,3.27-.48.7-1.05,1.34-1.68,1.91-.64.57-1.33,1.08-2.08,1.52-.44.26-.9.51-1.39.73-.48.22-.99.37-1.52.46-.26.04-.68.06-1.25.03-.57-.02-1.18-.05-1.82-.1-.64-.04-1.24-.1-1.82-.17-.57-.07-.99-.14-1.25-.23.13,1.5.48,2.99,1.06,4.49.31.75.67,1.47,1.09,2.18.42.7.93,1.32,1.55,1.85.35.31.74.56,1.15.76.42.2.87.34,1.35.43,1.23.22,2.45.09,3.66-.4,1.21-.48,2.34-1.03,3.4-1.65.48-.26.95-.36,1.39-.3.44.07.77.23.99.5.22.26.33.61.33,1.02s-.2.85-.59,1.29c-1.06,1.14-2.3,2.13-3.73,2.97-1.43.84-2.91,1.43-4.46,1.78ZM190.06,187.9c.26.09.67.19,1.22.3.55.11,1.13.21,1.75.3.62.09,1.2.14,1.75.17.55.02.98-.01,1.29-.1.92-.26,1.74-.75,2.44-1.45.7-.7,1.29-1.52,1.75-2.44s.79-1.91.99-2.97c.2-1.06.23-2.07.1-3.04-.09-.97-.35-1.85-.79-2.64-.62-1.05-1.54-1.64-2.77-1.75-1.23-.11-2.35.21-3.37.96-.62.44-1.13.99-1.55,1.65-.42.66-.78,1.34-1.09,2.04-.62,1.41-1.04,2.87-1.29,4.39-.24,1.52-.38,3.05-.43,4.59Z"/>
      <path class="cls-4" d="M219.37,205.59c-.57.09-1.33.15-2.28.2-.95.04-1.9.03-2.87-.03-.97-.07-1.89-.2-2.77-.4-.88-.2-1.54-.5-1.98-.89-.31-.26-.54-.59-.69-.99-.16-.4-.28-.81-.36-1.25-.09-.53-.1-1.53-.03-3,.07-1.47.16-3.04.3-4.69.13-1.65.25-3.2.36-4.65.11-1.45.19-2.46.23-3.04,0-.26.02-.81.07-1.65.04-.83.09-1.73.13-2.67.04-.95.09-1.84.13-2.67.04-.84.07-1.38.07-1.65.04-1.06.12-2.12.23-3.2.11-1.08.41-2.1.89-3.07.31-.62.77-1.12,1.39-1.52.62-.4,1.28-.66,1.98-.79.79-.13,1.59-.24,2.41-.33.81-.09,1.64-.09,2.47,0,.62.09,1.22.21,1.82.36.59.16,1.13.43,1.62.83.62.48,1.1,1.12,1.45,1.91.22.48.36,1,.43,1.55.07.55.14,1.11.23,1.68.83-.92,1.74-1.78,2.71-2.57.97-.79,2.02-1.41,3.17-1.85,1.19-.48,2.49-.73,3.89-.73s2.66.33,3.76.99c.84.48,1.56,1.11,2.18,1.88.62.77,1.1,1.59,1.45,2.47.48,1.19.87,2.41,1.16,3.66.29,1.25.47,2.52.56,3.8.09.75.1,1.49.03,2.21-.07.73-.21,1.42-.43,2.08-.31.79-.78,1.44-1.42,1.95-.64.51-1.35.86-2.15,1.06-.79.2-1.59.22-2.41.07-.82-.15-1.55-.52-2.21-1.09-.49-.4-.85-.87-1.09-1.42-.24-.55-.43-1.13-.56-1.75-.22-1.01-.4-2.05-.53-3.1-.13-1.06-.31-2.09-.53-3.1-.09-.48-.19-.95-.3-1.39-.11-.44-.28-.86-.5-1.25-.04-.09-.11-.2-.2-.33-.09-.13-.18-.2-.26-.2-.18,0-.4.07-.66.2-.26.13-.53.3-.79.5-.26.2-.52.4-.76.59-.24.2-.43.36-.56.5-.62.66-1.22,1.34-1.82,2.05-.59.71-1.13,1.43-1.62,2.18,0,.44-.02,1.33-.07,2.67-.04,1.34-.09,2.79-.13,4.36-.04,1.56-.09,3.03-.13,4.39-.04,1.37-.07,2.27-.07,2.71-.09.84-.17,1.67-.23,2.51-.07.84-.23,1.63-.5,2.38-.35,1.14-.97,2.02-1.85,2.64-.35.26-.73.46-1.12.59-.4.13-.81.24-1.25.33Z"/>
      <path class="cls-4" d="M248.94,205.32c-.26,0-.67.02-1.22.07-.55.04-1.13.07-1.75.07s-1.2-.01-1.75-.03c-.55-.02-.93-.1-1.15-.23-.44-.22-.73-.59-.86-1.12-.13-.53-.09-1.01.13-1.45.18-.26.51-.86.99-1.78.48-.92,1-1.91,1.55-2.97.55-1.06,1.07-2.05,1.55-2.97.48-.92.79-1.52.92-1.78.17-.31.53-.89,1.06-1.75.53-.86,1.09-1.78,1.68-2.77.59-.99,1.16-1.92,1.68-2.81.53-.88.88-1.47,1.06-1.78,1.1-1.8,2.17-3.6,3.2-5.38,1.03-1.78,2.1-3.58,3.2-5.38-1.89.05-3.77.13-5.64.27-1.87.13-3.77.25-5.71.33-.44.04-.89.07-1.35.07s-.89-.11-1.29-.33c-.44-.22-.73-.57-.86-1.04-.13-.47-.09-.93.13-1.37.09-.36.26-.68.53-.97.26-.29.59-.44.99-.44.75.04,1.5.08,2.24.1.75.02,1.5.01,2.24-.03.66-.04,1.31-.1,1.95-.17s1.29-.1,1.95-.1c.88-.04,1.76-.04,2.64,0,.88.04,1.76.09,2.64.13.31.04.93.04,1.88,0,.95-.04,1.95-.1,3-.16,1.06-.07,2.06-.13,3-.2.95-.07,1.57-.1,1.88-.1.75,0,1.51.03,2.28.1.77.07,1.51.23,2.21.5.48.22.93.55,1.35.99.42.44.69.93.83,1.46.09.62.08,1.26-.03,1.92-.11.66-.27,1.3-.49,1.92-.09.13-.26.49-.53,1.06-.26.57-.42.95-.46,1.12-.18.44-.59,1.15-1.25,2.12-.66.97-1.36,2-2.11,3.08-.75,1.08-1.47,2.09-2.18,3.04-.7.95-1.19,1.62-1.45,2.02-1.54,2.12-2.95,4.3-4.22,6.55-1.28,2.25-2.46,4.56-3.56,6.94.31,0,.99-.02,2.05-.07,1.06-.04,2.19-.08,3.4-.1,1.21-.02,2.33-.04,3.37-.07,1.03-.02,1.73-.03,2.08-.03.44-.04.87-.07,1.29-.07s.83.04,1.22.13c.4.09.69.26.89.53.2.26.32.55.36.86.04.31-.01.62-.16.92-.16.31-.41.55-.76.73-.35.17-.81.26-1.39.26h-2.54c-1.21,0-2.58,0-4.12.03-1.54.02-3.19.04-4.95.07-1.76.02-3.41.03-4.95.03s-2.92.01-4.12.03c-1.21.02-2.06.03-2.54.03Z"/>
      <path class="cls-4" d="M304.97,204.33c-1.94.66-3.95,1.01-6.04,1.06-2.09.04-4.12-.2-6.1-.73-1.98-.53-3.88-1.39-5.71-2.57-1.83-1.19-3.38-2.6-4.65-4.22-1.19-1.58-2.11-3.34-2.77-5.28-.66-1.94-1.1-3.89-1.32-5.87-.35-2.55-.39-5.13-.1-7.72.29-2.6.82-5.1,1.62-7.52.53-1.63,1.21-3.2,2.05-4.72.83-1.52,1.83-2.89,2.97-4.12,1.1-1.1,2.33-2.05,3.7-2.84,1.36-.79,2.77-1.43,4.22-1.91,2.33-.7,4.75-1.02,7.26-.96,2.51.07,4.88.56,7.13,1.49,1.19.53,2.31,1.2,3.37,2.01,1.06.82,1.96,1.73,2.71,2.74.92,1.28,1.71,2.66,2.34,4.16s1.13,3.01,1.49,4.55c.48,2.11.78,4.27.89,6.47.11,2.2.05,4.4-.17,6.6-.18,1.72-.45,3.44-.83,5.18s-.93,3.4-1.68,4.98c-.48,1.01-1.02,1.97-1.62,2.87-.59.9-1.29,1.73-2.08,2.48-1.89,1.72-4.11,3.01-6.67,3.89ZM300.35,199.25c1.36.35,2.75.24,4.16-.33.57-.22,1.1-.55,1.58-.99.48-.44.92-.9,1.32-1.38,1.32-1.72,2.23-3.69,2.74-5.91.5-2.22.83-4.43.96-6.63.13-1.98.17-3.95.1-5.91-.07-1.96-.3-3.9-.69-5.84-.26-1.28-.7-2.53-1.32-3.76-.62-1.23-1.36-2.35-2.24-3.37-.48-.57-1.02-1.09-1.62-1.55-.59-.46-1.22-.87-1.88-1.22-.66-.31-1.39-.5-2.18-.59-.79-.09-1.54,0-2.24.26-.84.26-1.57.7-2.21,1.32-.64.62-1.2,1.3-1.68,2.05-1.01,1.58-1.75,3.31-2.21,5.18s-.78,3.75-.96,5.64c-.22,2.2-.26,4.4-.13,6.6.13,2.2.46,4.38.99,6.53.35,1.32.79,2.62,1.32,3.89.53,1.28,1.23,2.42,2.11,3.43.57.62,1.2,1.14,1.88,1.58.68.44,1.42.77,2.21.99Z"/>
      <path class="cls-4" d="M332.09,205.59c-.88.04-1.76.04-2.64,0-.88-.04-1.76-.18-2.64-.4-.4-.09-.79-.2-1.19-.33-.4-.13-.77-.33-1.12-.59-.57-.4-.97-.92-1.19-1.58-.22-.44-.39-1.19-.5-2.24-.11-1.06-.19-2.18-.23-3.37-.04-1.19-.08-2.31-.1-3.37-.02-1.06-.03-1.83-.03-2.31,0-.26-.01-.78-.03-1.55-.02-.77-.04-1.58-.07-2.44-.02-.86-.06-1.67-.1-2.44-.04-.77-.07-1.29-.07-1.55-.04-2.64-.04-5.27,0-7.89.04-2.62.11-5.25.2-7.89v-1.68c0-.81.02-1.66.07-2.54.04-.88.09-1.71.13-2.47.04-.77.11-1.31.2-1.62.31-1.14,1.03-1.91,2.18-2.31.84-.31,1.71-.49,2.61-.56.9-.07,1.79-.1,2.67-.1.75,0,1.46.04,2.15.13.68.09,1.37.24,2.08.46,1.36.44,2.35,1.28,2.97,2.51,1.89-1.01,3.93-1.78,6.1-2.31,2.18-.53,4.32-.55,6.44-.07,1.41.31,2.75.85,4.03,1.62,1.28.77,2.4,1.66,3.37,2.67,1.19,1.28,2.13,2.71,2.84,4.29s1.14,3.22,1.32,4.92c.18,1.69.1,3.39-.23,5.08-.33,1.69-.91,3.29-1.75,4.79-.7,1.23-1.64,2.31-2.8,3.23-1.17.92-2.41,1.65-3.73,2.18.35,2.42,1.02,4.78,2.01,7.06.99,2.29,2.21,4.42,3.66,6.4.13.13.32.35.56.66.24.31.51.63.79.96.29.33.56.64.83.92.26.29.48.45.66.49.4.18.67.42.83.73.15.31.21.63.16.96-.04.33-.19.62-.43.86-.24.24-.56.38-.96.43-.44.04-1.09.09-1.95.13-.86.04-1.76.07-2.71.07s-1.84-.04-2.67-.13c-.84-.09-1.45-.24-1.85-.46-.48-.26-1.03-.76-1.65-1.48-.62-.73-1.21-1.52-1.78-2.38-.57-.86-1.1-1.7-1.58-2.54-.48-.84-.81-1.52-.99-2.05-.09-.31-.29-.91-.59-1.82-.31-.9-.63-1.86-.96-2.87s-.65-1.97-.96-2.87c-.31-.9-.51-1.51-.59-1.82-.7,0-1.41-.01-2.11-.03-.7-.02-1.41-.05-2.11-.1v5.97c0,2-.09,3.99-.26,5.97-.09.84-.22,1.68-.4,2.54-.18.86-.53,1.6-1.06,2.21-.57.66-1.3,1.13-2.18,1.42-.88.29-1.76.45-2.64.49ZM338.63,183.01c1.14.04,2.29.02,3.43-.07,1.14-.09,2.29-.31,3.43-.66.97-.26,1.89-.68,2.77-1.25.88-.57,1.56-1.28,2.05-2.11.4-.7.7-1.44.92-2.21.22-.77.4-1.55.53-2.34.35-2.29.33-4.47-.07-6.53-.13-.75-.32-1.47-.56-2.18-.24-.7-.56-1.36-.96-1.98-.53-.7-1.2-1.26-2.01-1.68-.81-.42-1.69-.69-2.64-.83-.95-.13-1.91-.13-2.9,0-.99.13-1.88.4-2.67.79l-1.58,1.05c.13,1.94.19,3.84.17,5.71-.02,1.87-.03,3.77-.03,5.71.04,1.41.07,2.84.07,4.29s.02,2.88.07,4.29Z"/>
      <path class="cls-4" d="M382.77,205.06c-.75.22-1.52.35-2.32.4-.79.04-1.59.04-2.38,0-.75-.04-1.48-.11-2.19-.2-.71-.09-1.41-.24-2.12-.46-.4-.18-.79-.37-1.16-.59-.38-.22-.67-.5-.89-.86-.35-.48-.61-1.26-.76-2.34-.15-1.08-.27-2.22-.33-3.43-.07-1.21-.1-2.38-.1-3.5v-2.54c-.09-3.83-.14-7.61-.16-11.35-.02-3.74,0-7.52.1-11.35v-1.75c0-.81.02-1.67.07-2.57.04-.9.09-1.76.13-2.57.04-.81.13-1.38.26-1.68h-1.59c-.79,0-1.63,0-2.51-.03-.88-.02-1.72-.03-2.51-.03h-1.58c-.57,0-1-.15-1.29-.46-.29-.31-.43-.65-.43-1.02s.13-.71.4-1.02c.26-.31.68-.46,1.25-.46h32.54c.53,0,.92.15,1.19.46.26.31.4.65.4,1.02s-.13.72-.4,1.02c-.26.31-.66.46-1.19.46h-4.29c-.92,0-1.8.01-2.64.03-.84.02-1.39.03-1.65.03v4.03c0,1.89.01,4.07.03,6.53.02,2.46.03,5.08.03,7.85s-.01,5.39-.03,7.85c-.02,2.46-.03,4.65-.03,6.57s-.02,3.25-.07,3.99c-.04,1.06-.12,2.14-.23,3.27-.11,1.12-.48,2.12-1.09,3-.31.4-.67.74-1.09,1.02-.42.29-.87.52-1.36.69Z"/>
    </g>
  </g>
</svg>