<?xml version="1.0" encoding="UTF-8"?>
<svg id="Capa_2" xmlns="http://www.w3.org/2000/svg" xmlns:xlink="http://www.w3.org/1999/xlink" viewBox="0 0 334.77 335.4">
  <defs>
    <style>
      .cls-1 {
        fill: url(#linear-gradient-2);
      }

      .cls-2 {
        fill: url(#linear-gradient-3);
      }

      .cls-3 {
        fill: url(#linear-gradient);
      }
    </style>
    <linearGradient id="linear-gradient" x1="0" y1="167.7" x2="334.77" y2="167.7" gradientUnits="userSpaceOnUse">
      <stop offset=".07" stop-color="#6ec3ec"/>
      <stop offset=".96" stop-color="#395ba3"/>
    </linearGradient>
    <linearGradient id="linear-gradient-2" x1="98.04" y1="167.7" x2="301" y2="167.7" xlink:href="#linear-gradient"/>
    <linearGradient id="linear-gradient-3" x1="159.1" y1="152.22" x2="239.94" y2="152.22" xlink:href="#linear-gradient"/>
  </defs>
  <g id="trazado_logo">
    <g>
      <path class="cls-3" d="M200.88,302.01c-74.38,0-134.66-60.29-134.66-134.67S126.5,32.68,200.88,32.68c69.15,0,126.1,52.14,133.75,119.24C326.68,66.71,254.99,0,167.69,0,75.08,0,0,75.08,0,167.7s75.08,167.7,167.69,167.7,159.96-67.64,167.07-153.7c-7.17,67.62-64.37,120.31-133.89,120.31Z"/>
      <path class="cls-1" d="M199.51,66.22c-.12,0-.25,0-.37,0,44.23.2,80.03,36.12,80.03,80.4s-35.99,80.41-80.41,80.41-80.41-36-80.41-80.41c0-41.63,31.62-75.86,72.16-79.99-51.83,4.56-92.48,48.05-92.48,101.06,0,56.04,45.44,101.48,101.48,101.48s101.48-45.44,101.48-101.48-45.44-101.48-101.48-101.48Z"/>
      <path class="cls-2" d="M239.94,152.22c0,22.32-18.09,40.41-40.42,40.41s-40.42-18.1-40.42-40.41,18.1-40.42,40.42-40.42,40.42,18.09,40.42,40.42Z"/>
    </g>
  </g>
</svg>